<svg width="41" height="40" viewBox="0 0 41 40" fill="none" xmlns="http://www.w3.org/2000/svg">
<g id="Icon">
<path id="Vector" d="M30.358 21.2192C29.8819 20.2818 28.5386 19.4923 26.7532 20.8245C24.3217 22.6994 20.4449 22.6994 20.4449 22.6994C20.4449 22.6994 16.568 22.6994 14.1365 20.8245C12.3511 19.4923 11.0078 20.2818 10.5317 21.2192C9.68155 22.8639 10.6338 23.6697 12.7932 25.0019C14.6466 26.1532 17.1802 26.5808 18.8125 26.7452L17.4522 28.0609C15.5138 29.9194 13.6434 31.7121 12.3681 32.962C11.603 33.7185 11.603 34.9191 12.3681 35.6263L12.6062 35.8895C13.3713 36.6296 14.6296 36.6296 15.3948 35.8895L20.4449 30.9884C22.4003 32.8469 24.2537 34.6396 25.546 35.8895C26.3111 36.6296 27.5524 36.6296 28.3346 35.8895L28.5556 35.6263C29.3378 34.9191 29.3378 33.7185 28.5556 32.962L23.4885 28.0609L22.1452 26.7288C23.7606 26.5808 26.2601 26.1367 28.0965 25.0019C30.256 23.6697 31.2082 22.8639 30.358 21.2192ZM20.4449 7.78241C22.7914 7.78241 24.6958 9.62442 24.6958 11.8776C24.6958 14.1472 22.7914 15.9728 20.4449 15.9728C18.0984 15.9728 16.194 14.1472 16.194 11.8776C16.194 9.62442 18.0984 7.78241 20.4449 7.78241ZM20.4449 20.1995C25.2059 20.1995 29.0487 16.4826 29.0487 11.8776C29.0487 9.67048 28.1423 7.55377 26.5287 5.9931C24.9152 4.43244 22.7268 3.55566 20.4449 3.55566C18.163 3.55566 15.9746 4.43244 14.361 5.9931C12.7475 7.55377 11.841 9.67048 11.841 11.8776C11.841 16.4826 15.6838 20.1995 20.4449 20.1995Z" fill="white"/>
</g>
</svg>
