<svg width="41" height="40" viewBox="0 0 41 40" fill="none" xmlns="http://www.w3.org/2000/svg">
<g id="mingcute:youtube-fill" clip-path="url(#clip0_1957_2530)">
<g id="Group">
<path id="Vector" fill-rule="evenodd" clip-rule="evenodd" d="M20.2233 6.66699C21.6483 6.66699 23.11 6.70366 24.5266 6.76366L26.2 6.84366L27.8016 6.93866L29.3016 7.04033L30.6716 7.14699C32.1584 7.26079 33.5574 7.89524 34.6225 8.93872C35.6876 9.98221 36.3507 11.3679 36.495 12.852L36.5616 13.5603L36.6866 15.077C36.8033 16.6487 36.89 18.362 36.89 20.0003C36.89 21.6387 36.8033 23.352 36.6866 24.9237L36.5616 26.4403C36.54 26.6837 36.5183 26.9187 36.495 27.1487C36.3506 28.633 35.6874 30.0189 34.6219 31.0624C33.5564 32.106 32.157 32.7402 30.67 32.8537L29.3033 32.9587L27.8033 33.062L26.2 33.157L24.5266 33.237C23.093 33.2993 21.6583 33.3315 20.2233 33.3337C18.7883 33.3315 17.3536 33.2993 15.92 33.237L14.2466 33.157L12.645 33.062L11.145 32.9587L9.77497 32.8537C8.28822 32.7399 6.88923 32.1054 5.8241 31.0619C4.75896 30.0184 4.09593 28.6328 3.95164 27.1487L3.88497 26.4403L3.75997 24.9237C3.63254 23.2856 3.56471 21.6434 3.55664 20.0003C3.55664 18.362 3.64331 16.6487 3.75997 15.077L3.88497 13.5603C3.90664 13.317 3.92831 13.082 3.95164 12.852C4.09587 11.3682 4.75867 9.98268 5.82346 8.93923C6.88825 7.89578 8.28685 7.26116 9.77331 7.14699L11.1416 7.04033L12.6416 6.93866L14.245 6.84366L15.9183 6.76366C17.3525 6.70138 18.7878 6.66915 20.2233 6.66699ZM16.89 15.9587V24.042C16.89 24.812 17.7233 25.292 18.39 24.9087L25.39 20.867C25.5423 20.7793 25.6688 20.653 25.7568 20.5009C25.8448 20.3487 25.8911 20.1761 25.8911 20.0003C25.8911 19.8246 25.8448 19.6519 25.7568 19.4998C25.6688 19.3476 25.5423 19.2213 25.39 19.1337L18.39 15.0937C18.2379 15.0059 18.0654 14.9597 17.8898 14.9597C17.7142 14.9597 17.5417 15.006 17.3897 15.0938C17.2377 15.1817 17.1114 15.308 17.0237 15.4601C16.936 15.6122 16.8899 15.7847 16.89 15.9603V15.9587Z" fill="white"/>
</g>
</g>
<defs>
<clipPath id="clip0_1957_2530">
<rect width="40" height="40" fill="white" transform="translate(0.222656)"/>
</clipPath>
</defs>
</svg>
